<svg width="37" height="29" viewBox="0 0 37 29" fill="none" xmlns="http://www.w3.org/2000/svg">
<path d="M36 25V10C36 9.20435 35.6313 8.44129 34.9749 7.87868C34.3185 7.31607 33.4283 7 32.5 7H20.663C20.0129 6.99998 19.3756 6.84476 18.8227 6.55174C18.2697 6.25871 17.8228 5.83947 17.5322 5.341L15.9678 2.659C15.677 2.1603 15.2299 1.74091 14.6766 1.44787C14.1233 1.15483 13.4857 0.999741 12.8352 1H4.5C3.57174 1 2.6815 1.31607 2.02513 1.87868C1.36875 2.44129 1 3.20435 1 4V25C1 25.7956 1.36875 26.5587 2.02513 27.1213C2.6815 27.6839 3.57174 28 4.5 28H32.5C33.4283 28 34.3185 27.6839 34.9749 27.1213C35.6313 26.5587 36 25.7956 36 25Z" stroke="black" stroke-width="2" stroke-linecap="round" stroke-linejoin="round"/>
<path d="M18.5 17.5H13.25M18.5 13V17.5V13ZM18.5 17.5V22V17.5ZM18.5 17.5H23.75H18.5Z" stroke="black" stroke-width="2" stroke-linecap="round"/>
</svg>
